<svg width="20" height="20" viewBox="0 0 20 20" fill="none" xmlns="http://www.w3.org/2000/svg">
<g id="Frame 159">
<g id="Group 2">
<path id="Rectangle 19" d="M1.66667 9.31004C1.66667 8.25287 2.52367 7.39587 3.58083 7.39587H7.54449V13.125H3.58083C2.52367 13.125 1.66667 12.268 1.66667 11.2109V9.31004Z" fill="#2E1DEF"/>
<g id="&#240;&#159;&#166;&#134; emoji &#34;plus&#34;">
<path id="Vector" d="M13.452 7.52942H13.4508L13.1083 7.52842C13.1082 7.52842 13.1081 7.52842 13.1079 7.52842C12.8686 7.52774 12.675 7.33352 12.675 7.09421V3.10225C12.675 2.53949 12.2188 2.08329 11.656 2.08329H8.48899C7.92624 2.08329 7.47004 2.5395 7.47004 3.10225V7.07839C7.47004 7.32634 7.2684 7.52699 7.02046 7.52578L7.02092 7.52578L7.02249 7.10912L7.02043 7.52578L13.452 7.52942ZM13.452 7.52942H16.8977C17.4605 7.52942 17.9167 7.98562 17.9167 8.54837V11.9924C17.9167 12.5552 17.4605 13.0114 16.8977 13.0114H13.4554L13.4561 13.0114L13.4549 13.4281M13.452 7.52942V7.11275H16.8977C17.6906 7.11275 18.3333 7.7555 18.3333 8.54837V11.9924C18.3333 12.7853 17.6906 13.4281 16.8977 13.4281H13.4549M13.4549 13.4281V13.0114L13.1044 13.0104H13.1044C12.8701 13.0097 12.6788 13.1974 12.675 13.4317L12.675 13.4317V13.4384V16.8977C12.675 17.4604 12.2188 17.9166 11.656 17.9166H8.48899C7.92624 17.9166 7.47004 17.4604 7.47004 16.8977V13.4609C7.47004 13.2111 7.26793 13.0085 7.01827 13.0077L7.01851 13.0077L7.0169 13.4244L7.01733 13.0077L13.0917 13.4384C13.0918 13.4321 13.0969 13.427 13.1032 13.4271L13.4549 13.4281ZM6.7586 7.52479V7.10813L6.75703 7.52479L6.75779 7.52479H6.7586Z" stroke="#89A2EB" stroke-width="0.833333" stroke-miterlimit="10" stroke-linecap="round" stroke-linejoin="round"/>
</g>
</g>
</g>
</svg>
