<svg width="18" height="18" viewBox="0 0 18 18" fill="none" xmlns="http://www.w3.org/2000/svg">
<g clip-path="url(#clip0_7165_4876)">
<path d="M6 12.75L9 15.75L12 12.75" stroke="white" stroke-width="1.5" stroke-linecap="round" stroke-linejoin="round"/>
<path d="M9 9V15.75" stroke="white" stroke-width="1.5" stroke-linecap="round" stroke-linejoin="round"/>
<path d="M15.66 13.5675C16.3121 13.109 16.801 12.4546 17.056 11.6994C17.3109 10.9441 17.3186 10.1273 17.0778 9.36738C16.837 8.60749 16.3604 7.94408 15.7171 7.47343C15.0737 7.00279 14.2971 6.74939 13.5 6.75001H12.555C12.3294 5.87092 11.9074 5.05445 11.3206 4.36207C10.7338 3.6697 9.99762 3.11946 9.16742 2.75278C8.33721 2.3861 7.43464 2.21253 6.52766 2.24515C5.62067 2.27777 4.7329 2.51571 3.93118 2.94108C3.12946 3.36645 2.43468 3.96815 1.89915 4.70088C1.36362 5.43362 1.0013 6.2783 0.839456 7.17132C0.677613 8.06435 0.720468 8.98246 0.964796 9.85653C1.20912 10.7306 1.64856 11.5378 2.25001 12.2175" stroke="white" stroke-width="1.5" stroke-linecap="round" stroke-linejoin="round"/>
</g>
<defs>
<clipPath id="clip0_7165_4876">
<rect width="18" height="18" fill="white"/>
</clipPath>
</defs>
</svg>
