<svg width="20" height="20" viewBox="0 0 20 20" fill="none" xmlns="http://www.w3.org/2000/svg">
<g id="Frame 145" clip-path="url(#clip0_140_246)">
<g id="&#240;&#159;&#166;&#134; icon &#34;ps play station button square&#34;">
<g id="Group">
<path id="Vector" d="M9.99998 20C15.5228 20 20 15.5228 20 9.99998C20 4.47714 15.5228 0 9.99998 0C4.47714 0 0 4.47714 0 9.99998C0 15.5228 4.47714 20 9.99998 20Z" fill="#D650C7" fill-opacity="0.6"/>
<path id="Vector_2" d="M5.62499 14.375H14.375V5.62496H5.62499V14.375ZM4.16666 5.62177C4.16666 4.81869 4.82062 4.16663 5.6218 4.16663H14.3782C15.1813 4.16663 15.8333 4.82059 15.8333 5.62177V14.3782C15.8333 15.1812 15.1794 15.8333 14.3782 15.8333H5.6218C4.81872 15.8333 4.16666 15.1793 4.16666 14.3782V5.62177Z" fill="white"/>
</g>
</g>
</g>
<defs>
<clipPath id="clip0_140_246">
<rect width="20" height="20" fill="white"/>
</clipPath>
</defs>
</svg>
