<svg width="19" height="18" viewBox="0 0 19 18" fill="none" xmlns="http://www.w3.org/2000/svg">
<path d="M18.0832 6.00024C18.3133 6.00024 18.4999 6.18679 18.4999 6.41691V11.5836C18.4999 11.8137 18.3133 12.0002 18.0832 12.0002H14.5475C14.437 12.0002 14.331 11.9563 14.2528 11.8782L11.6695 9.29487C11.5068 9.13215 11.5068 8.86833 11.6695 8.70562L14.2528 6.12228C14.331 6.04414 14.437 6.00024 14.5475 6.00024H18.0832Z" fill="#89A2EB"/>
<path d="M3.24181 6.00024C3.38427 6.00024 3.49976 6.11573 3.49976 6.25819L3.49976 11.7423C3.49976 11.8848 3.38427 12.0002 3.24181 12.0002C3.16742 12.0002 3.09666 11.9681 3.04768 11.9122L0.739836 9.27462C0.602378 9.11753 0.602379 8.88296 0.739836 8.72587L3.04768 6.08833C3.09666 6.03235 3.16742 6.00024 3.24181 6.00024Z" fill="#2E1DEF"/>
<path d="M4.66679 6.00024C4.43667 6.00024 4.25012 6.18679 4.25012 6.41691V11.5836C4.25012 11.8137 4.43667 12.0002 4.66679 12.0002H7.45253C7.56304 12.0002 7.66902 11.9563 7.74716 11.8782L10.3305 9.29487C10.4932 9.13215 10.4932 8.86833 10.3305 8.70562L7.74716 6.12228C7.66902 6.04414 7.56304 6.00024 7.45253 6.00024H4.66679Z" fill="#89A2EB"/>
<path d="M7.99988 1.91691C7.99988 1.68679 8.18643 1.50024 8.41654 1.50024H13.5832C13.8133 1.50024 13.9999 1.68679 13.9999 1.91691V5.45265C13.9999 5.56316 13.956 5.66914 13.8778 5.74728L11.2945 8.33062C11.1318 8.49333 10.868 8.49333 10.7053 8.33062L8.12192 5.74728C8.04378 5.66914 7.99988 5.56316 7.99988 5.45265V1.91691Z" fill="#89A2EB"/>
<path d="M7.99988 16.0833C7.99988 16.3135 8.18643 16.5 8.41654 16.5H13.5832C13.8133 16.5 13.9999 16.3135 13.9999 16.0833V12.5476C13.9999 12.4371 13.956 12.3311 13.8778 12.253L11.2945 9.66963C11.1318 9.50691 10.868 9.50691 10.7053 9.66963L8.12192 12.253C8.04378 12.3311 7.99988 12.4371 7.99988 12.5476V16.0833Z" fill="#89A2EB"/>
</svg>
