<svg width="19" height="18" viewBox="0 0 19 18" fill="none" xmlns="http://www.w3.org/2000/svg">
<path d="M0.916789 6.00024C0.68667 6.00024 0.500122 6.18679 0.500122 6.41691L0.500122 11.5836C0.500122 11.8137 0.68667 12.0002 0.916789 12.0002H4.45253C4.56304 12.0002 4.66902 11.9563 4.74716 11.8782L7.33049 9.29487C7.49321 9.13215 7.49321 8.86833 7.33049 8.70562L4.74716 6.12228C4.66902 6.04414 4.56304 6.00024 4.45253 6.00024H0.916789Z" fill="#89A2EB"/>
<path d="M15.7581 6.00024C15.6157 6.00024 15.5002 6.11573 15.5002 6.25819V11.7423C15.5002 11.8848 15.6157 12.0002 15.7581 12.0002C15.8325 12.0002 15.9033 11.9681 15.9523 11.9122L18.2601 9.27462C18.3976 9.11753 18.3976 8.88296 18.2601 8.72587L15.9523 6.08833C15.9033 6.03235 15.8325 6.00024 15.7581 6.00024Z" fill="#2E1DEF"/>
<path d="M14.3333 6.00024C14.5634 6.00024 14.7499 6.18679 14.7499 6.41691V11.5836C14.7499 11.8137 14.5634 12.0002 14.3333 12.0002H11.5475C11.437 12.0002 11.331 11.9563 11.2529 11.8782L8.66957 9.29487C8.50685 9.13215 8.50685 8.86833 8.66957 8.70562L11.2529 6.12228C11.331 6.04414 11.437 6.00024 11.5475 6.00024H14.3333Z" fill="#89A2EB"/>
<path d="M11.0001 1.91691C11.0001 1.68679 10.8135 1.50024 10.5834 1.50024H5.41673C5.18661 1.50024 5.00006 1.68679 5.00006 1.91691V5.45265C5.00006 5.56316 5.04396 5.66914 5.1221 5.74728L7.70543 8.33062C7.86815 8.49333 8.13197 8.49333 8.29469 8.33062L10.878 5.74728C10.9562 5.66914 11.0001 5.56316 11.0001 5.45265V1.91691Z" fill="#89A2EB"/>
<path d="M11.0001 16.0833C11.0001 16.3135 10.8135 16.5 10.5834 16.5H5.41673C5.18661 16.5 5.00006 16.3135 5.00006 16.0833V12.5476C5.00006 12.4371 5.04396 12.3311 5.1221 12.253L7.70543 9.66963C7.86815 9.50691 8.13197 9.50691 8.29469 9.66963L10.878 12.253C10.9562 12.3311 11.0001 12.4371 11.0001 12.5476V16.0833Z" fill="#89A2EB"/>
</svg>
