<svg width="26" height="26" viewBox="0 0 26 26" fill="none" xmlns="http://www.w3.org/2000/svg">
<g id="Frame 236">
<g id="&#240;&#159;&#166;&#134; icon &#34;cloud download&#34;">
<path id="Vector" d="M23.725 11.9167C23.725 11.7975 23.66 11.6783 23.6275 11.5592C23.5773 11.3489 23.5121 11.1426 23.4325 10.9417C23.3783 10.8117 23.3025 10.6817 23.2375 10.5408C23.1725 10.4 23.075 10.2158 22.9775 10.0642C22.88 9.9125 22.75 9.83667 22.75 9.75C22.75 9.66334 22.5333 9.47917 22.4141 9.34917C22.295 9.21917 22.1866 9.1325 22.0675 9.02417L21.6666 8.66667L21.2766 8.40667C21.1235 8.31298 20.9643 8.22974 20.8 8.15751L20.3775 7.9625C20.2005 7.89697 20.0196 7.84269 19.8358 7.8C19.6902 7.75717 19.5418 7.72459 19.3916 7.7025H19.1966C18.7793 6.4017 17.9628 5.26544 16.863 4.45509C15.7632 3.64473 14.4361 3.20148 13.0701 3.18829C11.704 3.1751 10.3686 3.59263 9.25334 4.38159C8.1381 5.17056 7.29979 6.29084 6.85746 7.58334H6.66246C6.51231 7.60543 6.36389 7.63801 6.21829 7.68084C6.03449 7.72353 5.85357 7.7778 5.67663 7.84334L5.25413 8.03834C5.08981 8.11057 4.93056 8.19381 4.77746 8.2875L4.38746 8.66667L3.98663 9.00251C3.86746 9.11084 3.74829 9.20834 3.63996 9.3275C3.53163 9.44667 3.41246 9.59834 3.30413 9.72834C3.19579 9.85834 3.10913 9.9775 3.02246 10.1183C2.93579 10.2592 2.84913 10.4325 2.76246 10.595C2.67579 10.7575 2.62163 10.8658 2.56746 10.9958C2.48777 11.1967 2.4226 11.4031 2.37246 11.6133C2.37246 11.7325 2.29663 11.8517 2.27496 11.9708C2.20753 12.3099 2.17127 12.6544 2.16663 13C2.1717 13.3308 2.20432 13.6605 2.26413 13.9858C2.26413 14.0942 2.31829 14.1917 2.33996 14.3C2.39351 14.5128 2.4586 14.7226 2.53496 14.9283L2.66496 15.2425C2.76032 15.4514 2.86888 15.654 2.98996 15.8492L3.14163 16.0875C3.15721 16.1179 3.17533 16.1469 3.19579 16.1742L3.24996 16.25C3.75451 16.9227 4.40875 17.4688 5.16089 17.8448C5.91302 18.2209 6.74238 18.4167 7.58329 18.4167C7.58571 17.843 7.81557 17.2936 8.22246 16.8892C8.62692 16.4823 9.17625 16.2524 9.74996 16.25C10.131 16.2464 10.5058 16.3476 10.8333 16.5425V13C10.8333 12.4254 11.0616 11.8743 11.4679 11.4679C11.8742 11.0616 12.4253 10.8333 13 10.8333C13.5746 10.8333 14.1257 11.0616 14.532 11.4679C14.9384 11.8743 15.1666 12.4254 15.1666 13V16.6508C15.4958 16.4599 15.8694 16.359 16.25 16.3583C16.8369 16.3638 17.3977 16.6014 17.81 17.0192C18.1747 17.3962 18.3902 17.8928 18.4166 18.4167C19.2575 18.4167 20.0869 18.2209 20.839 17.8448C21.5912 17.4688 22.2454 16.9227 22.75 16.25L22.8041 16.1958C22.8246 16.1685 22.8427 16.1395 22.8583 16.1092L23.01 15.8708C23.131 15.6757 23.2396 15.4731 23.335 15.2642L23.465 14.95C23.5413 14.7443 23.6064 14.5345 23.66 14.3217C23.66 14.2133 23.7141 14.1158 23.7358 14.0075C23.7968 13.675 23.8294 13.338 23.8333 13C23.832 12.6363 23.7958 12.2735 23.725 11.9167Z" fill="white"/>
<path id="Vector_2" d="M15.5024 17.7451L14.0832 19.1101V13.0001C14.0832 12.7128 13.9691 12.4372 13.7659 12.234C13.5627 12.0309 13.2872 11.9167 12.9999 11.9167C12.7126 11.9167 12.437 12.0309 12.2338 12.234C12.0307 12.4372 11.9165 12.7128 11.9165 13.0001V19.0559L10.519 17.6476C10.418 17.5466 10.2981 17.4664 10.1661 17.4118C10.0342 17.3571 9.89272 17.329 9.74988 17.329C9.60703 17.329 9.46558 17.3571 9.3336 17.4118C9.20163 17.4664 9.08172 17.5466 8.98071 17.6476C8.8797 17.7486 8.79958 17.8685 8.74491 18.0005C8.69025 18.1325 8.66211 18.2739 8.66211 18.4167C8.66211 18.5596 8.69025 18.701 8.74491 18.833C8.79958 18.965 8.8797 19.0849 8.98071 19.1859L12.2307 22.4359C12.3319 22.5363 12.452 22.6158 12.584 22.6697C12.716 22.7236 12.8573 22.7509 12.9999 22.7501C13.2788 22.749 13.5465 22.6403 13.7474 22.4467L16.9974 19.3051C17.1123 19.2102 17.2065 19.0927 17.2739 18.9598C17.3414 18.8269 17.3807 18.6815 17.3894 18.5327C17.3981 18.3839 17.376 18.235 17.3245 18.0951C17.273 17.9553 17.1932 17.8275 17.09 17.7199C16.9869 17.6123 16.8627 17.5272 16.7252 17.4698C16.5876 17.4123 16.4397 17.3839 16.2907 17.3863C16.1417 17.3887 15.9948 17.4217 15.8591 17.4835C15.7235 17.5452 15.602 17.6343 15.5024 17.7451Z" fill="white"/>
</g>
</g>
</svg>
