<svg width="20" height="20" viewBox="0 0 20 20" fill="none" xmlns="http://www.w3.org/2000/svg">
<g clip-path="url(#clip0_148_348)">
<path d="M0 7.40117C0 5.15459 1.82121 3.33337 4.0678 3.33337H15.9322C18.1788 3.33337 20 5.15459 20 7.40117V12.3159C20 13.836 19.0314 15.1872 17.5917 15.6752C12.6682 17.3442 7.33185 17.3442 2.40833 15.6752C0.968648 15.1872 0 13.836 0 12.3159V7.40117Z" fill="#D9D9D9"/>
<path d="M6.60953 14V7.59014H7.38572V13.3114H10.3653V14H6.60953ZM13.3034 7.59014V14H12.5272V8.40389H12.4897L10.9248 9.44299V8.65428L12.5272 7.59014H13.3034Z" fill="white"/>
</g>
<defs>
<clipPath id="clip0_148_348">
<rect width="20" height="20" fill="white" transform="matrix(0 1 1 0 0 0)"/>
</clipPath>
</defs>
</svg>
