<svg width="375" height="812" viewBox="0 0 375 812" fill="none" xmlns="http://www.w3.org/2000/svg">
<path d="M372.739 -1.97791e-06C372.739 -1.97791e-06 379.244 21.1125 395.62 26.7045C411.54 32.0682 417.988 53.7513 417.988 53.7513" stroke="url(#paint0_linear_7131_4452)" stroke-width="2" stroke-miterlimit="10"/>
<path d="M352.197 -2.87582e-06C352.197 -2.87582e-06 360.585 36.0624 385.749 45.4204C410 54.436 417.988 91.2403 417.988 91.2403" stroke="url(#paint1_linear_7131_4452)" stroke-width="2" stroke-miterlimit="10"/>
<path d="M331.598 -3.77623e-06C331.598 -3.77623e-06 341.926 50.9553 375.877 64.1934C408.516 76.8039 417.988 128.672 417.988 128.672" stroke="url(#paint2_linear_7131_4452)" stroke-width="2" stroke-miterlimit="10"/>
<path d="M311.056 -4.67415e-06C311.056 -4.67415e-06 323.267 65.9052 366.006 82.9094C406.975 99.1717 417.988 166.161 417.988 166.161" stroke="url(#paint3_linear_7131_4452)" stroke-width="2" stroke-miterlimit="10"/>
<path d="M290.514 -5.57206e-06C290.514 -5.57206e-06 304.608 80.8552 356.191 101.682C405.435 121.54 417.988 203.65 417.988 203.65" stroke="url(#paint4_linear_7131_4452)" stroke-width="2" stroke-miterlimit="10"/>
<path d="M269.915 -6.47247e-06C269.915 -6.47247e-06 285.949 95.7481 346.263 120.398C403.951 143.907 417.988 241.139 417.988 241.139" stroke="url(#paint5_linear_7131_4452)" stroke-width="2" stroke-miterlimit="10"/>
<path d="M249.373 -7.37038e-06C249.373 -7.37038e-06 267.29 110.698 336.448 139.171C402.41 166.275 417.988 278.628 417.988 278.628" stroke="url(#paint6_linear_7131_4452)" stroke-width="2" stroke-miterlimit="10"/>
<path d="M228.831 -8.2683e-06C228.831 -8.2683e-06 248.631 125.648 326.577 157.944C400.87 188.643 417.988 316.06 417.988 316.06" stroke="url(#paint7_linear_7131_4452)" stroke-width="2" stroke-miterlimit="10"/>
<path d="M208.232 -9.16871e-06C208.232 -9.16871e-06 229.916 140.541 316.705 176.66C399.386 211.068 417.988 353.549 417.988 353.549" stroke="url(#paint8_linear_7131_4452)" stroke-width="2" stroke-miterlimit="10"/>
<path d="M187.691 -1.00666e-05C187.691 -1.00666e-05 211.314 155.491 306.834 195.433C397.846 233.436 417.988 391.038 417.988 391.038" stroke="url(#paint9_linear_7131_4452)" stroke-width="2" stroke-miterlimit="10"/>
<path d="M167.149 -1.09645e-05C167.149 -1.09645e-05 192.655 170.441 297.019 214.149C396.305 255.804 417.988 428.527 417.988 428.527" stroke="url(#paint10_linear_7131_4452)" stroke-width="2" stroke-miterlimit="10"/>
<path d="M146.55 -1.18649e-05C146.55 -1.18649e-05 173.939 185.334 287.09 232.922C394.821 278.172 417.988 465.959 417.988 465.959" stroke="url(#paint11_linear_7131_4452)" stroke-width="2" stroke-miterlimit="10"/>
<path d="M126.008 -1.27629e-05C126.008 -1.27629e-05 155.28 200.284 277.219 251.638C393.281 300.539 417.988 503.448 417.988 503.448" stroke="url(#paint12_linear_7131_4452)" stroke-width="2" stroke-miterlimit="10"/>
<path d="M105.409 -1.36633e-05C105.409 -1.36633e-05 136.621 215.233 267.347 270.411C391.74 322.907 417.988 540.937 417.988 540.937" stroke="url(#paint13_linear_7131_4452)" stroke-width="2" stroke-miterlimit="10"/>
<path d="M84.8669 -1.45612e-05C84.8669 -1.45612e-05 117.962 230.126 257.476 289.127C390.256 345.275 417.988 578.426 417.988 578.426" stroke="url(#paint14_linear_7131_4452)" stroke-width="2" stroke-miterlimit="10"/>
<path d="M64.325 -1.54591e-05C64.325 -1.54591e-05 99.3033 245.076 247.661 307.9C388.716 367.643 417.988 615.915 417.988 615.915" stroke="url(#paint15_linear_7131_4452)" stroke-width="2" stroke-miterlimit="10"/>
<path d="M43.726 -1.63595e-05C43.726 -1.63595e-05 80.6444 260.026 237.733 326.673C387.175 390.011 417.988 653.347 417.988 653.347" stroke="url(#paint16_linear_7131_4452)" stroke-width="2" stroke-miterlimit="10"/>
<path d="M23.1841 -1.72574e-05C23.1841 -1.72574e-05 61.9855 274.919 227.918 345.389C385.692 412.379 417.988 690.836 417.988 690.836" stroke="url(#paint17_linear_7131_4452)" stroke-width="2" stroke-miterlimit="10"/>
<path d="M2.64223 -1.81553e-05C2.64223 -1.81553e-05 43.3266 289.869 218.047 364.162C384.151 434.746 417.988 728.324 417.988 728.324" stroke="url(#paint18_linear_7131_4452)" stroke-width="2" stroke-miterlimit="10"/>
<path d="M-17.9567 -1.90558e-05C-17.9567 -1.90558e-05 24.6106 304.819 208.175 382.878C382.61 457.114 417.988 765.813 417.988 765.813" stroke="url(#paint19_linear_7131_4452)" stroke-width="2" stroke-miterlimit="10"/>
<path d="M-38.4986 -1.99537e-05C-38.4986 -1.99537e-05 6.00882 319.712 198.304 401.651C381.127 479.482 417.988 803.245 417.988 803.245" stroke="url(#paint20_linear_7131_4452)" stroke-width="2" stroke-miterlimit="10"/>
<path d="M4.24924 812C4.24924 812 -2.25569 790.887 -18.6322 785.296C-34.5521 779.932 -41 758.249 -41 758.249" stroke="url(#paint21_linear_7131_4452)" stroke-width="2" stroke-miterlimit="10"/>
<path d="M24.7911 812C24.7911 812 16.4032 775.938 -8.76062 766.58C-33.0115 757.564 -41 720.76 -41 720.76" stroke="url(#paint22_linear_7131_4452)" stroke-width="2" stroke-miterlimit="10"/>
<path d="M45.3901 812C45.3901 812 35.0621 761.045 1.1109 747.807C-31.5279 735.196 -41 683.328 -41 683.328" stroke="url(#paint23_linear_7131_4452)" stroke-width="2" stroke-miterlimit="10"/>
<path d="M65.932 812C65.932 812 53.721 746.095 10.9824 729.091C-29.9873 712.828 -41 645.839 -41 645.839" stroke="url(#paint24_linear_7131_4452)" stroke-width="2" stroke-miterlimit="10"/>
<path d="M86.4739 812C86.4739 812 72.3799 731.145 20.7969 710.318C-28.4466 690.46 -41 608.35 -41 608.35" stroke="url(#paint25_linear_7131_4452)" stroke-width="2" stroke-miterlimit="10"/>
<path d="M107.073 812C107.073 812 91.0388 716.252 30.7255 691.602C-26.963 668.093 -41 570.861 -41 570.861" stroke="url(#paint26_linear_7131_4452)" stroke-width="2" stroke-miterlimit="10"/>
<path d="M127.615 812C127.615 812 109.698 701.302 40.5399 672.829C-25.4224 645.725 -41 533.372 -41 533.372" stroke="url(#paint27_linear_7131_4452)" stroke-width="2" stroke-miterlimit="10"/>
<path d="M148.157 812C148.157 812 128.357 686.352 50.4114 654.056C-23.8817 623.357 -41 495.94 -41 495.94" stroke="url(#paint28_linear_7131_4452)" stroke-width="2" stroke-miterlimit="10"/>
<path d="M168.756 812C168.756 812 147.073 671.459 60.283 635.34C-22.3982 600.932 -41 458.451 -41 458.451" stroke="url(#paint29_linear_7131_4452)" stroke-width="2" stroke-miterlimit="10"/>
<path d="M189.298 812C189.298 812 165.674 656.509 70.1545 616.567C-20.8575 578.564 -41 420.962 -41 420.962" stroke="url(#paint30_linear_7131_4452)" stroke-width="2" stroke-miterlimit="10"/>
<path d="M209.839 812C209.839 812 184.333 641.559 79.969 597.851C-19.3169 556.196 -41 383.473 -41 383.473" stroke="url(#paint31_linear_7131_4452)" stroke-width="2" stroke-miterlimit="10"/>
<path d="M230.438 812C230.438 812 203.049 626.666 89.8976 579.078C-17.8333 533.828 -41 346.041 -41 346.041" stroke="url(#paint32_linear_7131_4452)" stroke-width="2" stroke-miterlimit="10"/>
<path d="M250.98 812C250.98 812 221.708 611.716 99.7691 560.362C-16.2926 511.461 -41 308.552 -41 308.552" stroke="url(#paint33_linear_7131_4452)" stroke-width="2" stroke-miterlimit="10"/>
<path d="M271.579 812C271.579 812 240.367 596.767 109.641 541.589C-14.752 489.093 -41 271.063 -41 271.063" stroke="url(#paint34_linear_7131_4452)" stroke-width="2" stroke-miterlimit="10"/>
<path d="M292.121 812C292.121 812 259.026 581.874 119.512 522.873C-13.2684 466.725 -41 233.574 -41 233.574" stroke="url(#paint35_linear_7131_4452)" stroke-width="2" stroke-miterlimit="10"/>
<path d="M312.663 812C312.663 812 277.685 566.924 129.327 504.1C-11.7278 444.357 -41 196.085 -41 196.085" stroke="url(#paint36_linear_7131_4452)" stroke-width="2" stroke-miterlimit="10"/>
<path d="M333.262 812C333.262 812 296.344 551.974 139.255 485.327C-10.1871 421.989 -41 158.653 -41 158.653" stroke="url(#paint37_linear_7131_4452)" stroke-width="2" stroke-miterlimit="10"/>
<path d="M353.804 812C353.804 812 315.003 537.081 149.07 466.611C-8.70355 399.621 -41 121.164 -41 121.164" stroke="url(#paint38_linear_7131_4452)" stroke-width="2" stroke-miterlimit="10"/>
<path d="M374.346 812C374.346 812 333.661 522.131 158.941 447.838C-7.16291 377.254 -41 83.6756 -41 83.6756" stroke="url(#paint39_linear_7131_4452)" stroke-width="2" stroke-miterlimit="10"/>
<path d="M394.945 812C394.945 812 352.377 507.181 168.813 429.122C-5.62226 354.886 -41 46.1865 -41 46.1865" stroke="url(#paint40_linear_7131_4452)" stroke-width="2" stroke-miterlimit="10"/>
<path d="M415.487 812C415.487 812 370.979 492.288 178.684 410.349C-4.13868 332.518 -41 8.75455 -41 8.75455" stroke="url(#paint41_linear_7131_4452)" stroke-width="2" stroke-miterlimit="10"/>
<defs>
<linearGradient id="paint0_linear_7131_4452" x1="417.988" y1="26.8757" x2="372.739" y2="26.8757" gradientUnits="userSpaceOnUse">
<stop stop-color="#5A51CE"/>
<stop offset="1" stop-color="#5A51CE" stop-opacity="0"/>
</linearGradient>
<linearGradient id="paint1_linear_7131_4452" x1="417.988" y1="45.6201" x2="352.197" y2="45.6201" gradientUnits="userSpaceOnUse">
<stop stop-color="#5A51CE"/>
<stop offset="1" stop-color="#5A51CE" stop-opacity="0"/>
</linearGradient>
<linearGradient id="paint2_linear_7131_4452" x1="417.988" y1="64.3361" x2="331.598" y2="64.3361" gradientUnits="userSpaceOnUse">
<stop stop-color="#5A51CE"/>
<stop offset="1" stop-color="#5A51CE" stop-opacity="0"/>
</linearGradient>
<linearGradient id="paint3_linear_7131_4452" x1="417.988" y1="83.0806" x2="311.056" y2="83.0806" gradientUnits="userSpaceOnUse">
<stop stop-color="#5A51CE"/>
<stop offset="1" stop-color="#5A51CE" stop-opacity="0"/>
</linearGradient>
<linearGradient id="paint4_linear_7131_4452" x1="417.988" y1="101.825" x2="290.514" y2="101.825" gradientUnits="userSpaceOnUse">
<stop stop-color="#5A51CE"/>
<stop offset="1" stop-color="#5A51CE" stop-opacity="0"/>
</linearGradient>
<linearGradient id="paint5_linear_7131_4452" x1="417.988" y1="120.57" x2="269.915" y2="120.57" gradientUnits="userSpaceOnUse">
<stop stop-color="#5A51CE"/>
<stop offset="1" stop-color="#5A51CE" stop-opacity="0"/>
</linearGradient>
<linearGradient id="paint6_linear_7131_4452" x1="417.988" y1="139.314" x2="249.373" y2="139.314" gradientUnits="userSpaceOnUse">
<stop stop-color="#5A51CE"/>
<stop offset="1" stop-color="#5A51CE" stop-opacity="0"/>
</linearGradient>
<linearGradient id="paint7_linear_7131_4452" x1="417.988" y1="158.03" x2="228.831" y2="158.03" gradientUnits="userSpaceOnUse">
<stop stop-color="#5A51CE"/>
<stop offset="1" stop-color="#5A51CE" stop-opacity="0"/>
</linearGradient>
<linearGradient id="paint8_linear_7131_4452" x1="417.988" y1="176.774" x2="208.232" y2="176.774" gradientUnits="userSpaceOnUse">
<stop stop-color="#5A51CE"/>
<stop offset="1" stop-color="#5A51CE" stop-opacity="0"/>
</linearGradient>
<linearGradient id="paint9_linear_7131_4452" x1="417.988" y1="195.519" x2="187.691" y2="195.519" gradientUnits="userSpaceOnUse">
<stop stop-color="#5A51CE"/>
<stop offset="1" stop-color="#5A51CE" stop-opacity="0"/>
</linearGradient>
<linearGradient id="paint10_linear_7131_4452" x1="417.988" y1="214.263" x2="167.149" y2="214.263" gradientUnits="userSpaceOnUse">
<stop stop-color="#5A51CE"/>
<stop offset="1" stop-color="#5A51CE" stop-opacity="0"/>
</linearGradient>
<linearGradient id="paint11_linear_7131_4452" x1="417.988" y1="232.979" x2="146.55" y2="232.979" gradientUnits="userSpaceOnUse">
<stop stop-color="#5A51CE"/>
<stop offset="1" stop-color="#5A51CE" stop-opacity="0"/>
</linearGradient>
<linearGradient id="paint12_linear_7131_4452" x1="417.988" y1="251.724" x2="126.008" y2="251.724" gradientUnits="userSpaceOnUse">
<stop stop-color="#5A51CE"/>
<stop offset="1" stop-color="#5A51CE" stop-opacity="0"/>
</linearGradient>
<linearGradient id="paint13_linear_7131_4452" x1="417.988" y1="270.468" x2="105.409" y2="270.468" gradientUnits="userSpaceOnUse">
<stop stop-color="#5A51CE"/>
<stop offset="1" stop-color="#5A51CE" stop-opacity="0"/>
</linearGradient>
<linearGradient id="paint14_linear_7131_4452" x1="417.988" y1="289.213" x2="84.8669" y2="289.213" gradientUnits="userSpaceOnUse">
<stop stop-color="#5A51CE"/>
<stop offset="1" stop-color="#5A51CE" stop-opacity="0"/>
</linearGradient>
<linearGradient id="paint15_linear_7131_4452" x1="417.988" y1="307.957" x2="64.325" y2="307.957" gradientUnits="userSpaceOnUse">
<stop stop-color="#5A51CE"/>
<stop offset="1" stop-color="#5A51CE" stop-opacity="0"/>
</linearGradient>
<linearGradient id="paint16_linear_7131_4452" x1="417.988" y1="326.673" x2="43.726" y2="326.673" gradientUnits="userSpaceOnUse">
<stop stop-color="#5A51CE"/>
<stop offset="1" stop-color="#5A51CE" stop-opacity="0"/>
</linearGradient>
<linearGradient id="paint17_linear_7131_4452" x1="417.988" y1="345.418" x2="23.1841" y2="345.418" gradientUnits="userSpaceOnUse">
<stop stop-color="#5A51CE"/>
<stop offset="1" stop-color="#5A51CE" stop-opacity="0"/>
</linearGradient>
<linearGradient id="paint18_linear_7131_4452" x1="417.988" y1="364.162" x2="2.6422" y2="364.162" gradientUnits="userSpaceOnUse">
<stop stop-color="#5A51CE"/>
<stop offset="1" stop-color="#5A51CE" stop-opacity="0"/>
</linearGradient>
<linearGradient id="paint19_linear_7131_4452" x1="417.988" y1="382.907" x2="-17.9567" y2="382.907" gradientUnits="userSpaceOnUse">
<stop stop-color="#5A51CE"/>
<stop offset="1" stop-color="#5A51CE" stop-opacity="0"/>
</linearGradient>
<linearGradient id="paint20_linear_7131_4452" x1="417.988" y1="401.623" x2="-38.4986" y2="401.623" gradientUnits="userSpaceOnUse">
<stop stop-color="#5A51CE"/>
<stop offset="1" stop-color="#5A51CE" stop-opacity="0"/>
</linearGradient>
<linearGradient id="paint21_linear_7131_4452" x1="-41" y1="785.124" x2="4.24924" y2="785.124" gradientUnits="userSpaceOnUse">
<stop stop-color="#5A51CE"/>
<stop offset="1" stop-color="#5A51CE" stop-opacity="0"/>
</linearGradient>
<linearGradient id="paint22_linear_7131_4452" x1="-41" y1="766.38" x2="24.7911" y2="766.38" gradientUnits="userSpaceOnUse">
<stop stop-color="#5A51CE"/>
<stop offset="1" stop-color="#5A51CE" stop-opacity="0"/>
</linearGradient>
<linearGradient id="paint23_linear_7131_4452" x1="-41" y1="747.664" x2="45.3901" y2="747.664" gradientUnits="userSpaceOnUse">
<stop stop-color="#5A51CE"/>
<stop offset="1" stop-color="#5A51CE" stop-opacity="0"/>
</linearGradient>
<linearGradient id="paint24_linear_7131_4452" x1="-41" y1="728.919" x2="65.932" y2="728.919" gradientUnits="userSpaceOnUse">
<stop stop-color="#5A51CE"/>
<stop offset="1" stop-color="#5A51CE" stop-opacity="0"/>
</linearGradient>
<linearGradient id="paint25_linear_7131_4452" x1="-41" y1="710.175" x2="86.4739" y2="710.175" gradientUnits="userSpaceOnUse">
<stop stop-color="#5A51CE"/>
<stop offset="1" stop-color="#5A51CE" stop-opacity="0"/>
</linearGradient>
<linearGradient id="paint26_linear_7131_4452" x1="-41" y1="691.43" x2="107.073" y2="691.43" gradientUnits="userSpaceOnUse">
<stop stop-color="#5A51CE"/>
<stop offset="1" stop-color="#5A51CE" stop-opacity="0"/>
</linearGradient>
<linearGradient id="paint27_linear_7131_4452" x1="-41" y1="672.686" x2="127.615" y2="672.686" gradientUnits="userSpaceOnUse">
<stop stop-color="#5A51CE"/>
<stop offset="1" stop-color="#5A51CE" stop-opacity="0"/>
</linearGradient>
<linearGradient id="paint28_linear_7131_4452" x1="-41" y1="653.97" x2="148.157" y2="653.97" gradientUnits="userSpaceOnUse">
<stop stop-color="#5A51CE"/>
<stop offset="1" stop-color="#5A51CE" stop-opacity="0"/>
</linearGradient>
<linearGradient id="paint29_linear_7131_4452" x1="-41" y1="635.226" x2="168.756" y2="635.226" gradientUnits="userSpaceOnUse">
<stop stop-color="#5A51CE"/>
<stop offset="1" stop-color="#5A51CE" stop-opacity="0"/>
</linearGradient>
<linearGradient id="paint30_linear_7131_4452" x1="-41" y1="616.481" x2="189.298" y2="616.481" gradientUnits="userSpaceOnUse">
<stop stop-color="#5A51CE"/>
<stop offset="1" stop-color="#5A51CE" stop-opacity="0"/>
</linearGradient>
<linearGradient id="paint31_linear_7131_4452" x1="-41" y1="597.737" x2="209.839" y2="597.737" gradientUnits="userSpaceOnUse">
<stop stop-color="#5A51CE"/>
<stop offset="1" stop-color="#5A51CE" stop-opacity="0"/>
</linearGradient>
<linearGradient id="paint32_linear_7131_4452" x1="-41" y1="579.021" x2="230.438" y2="579.021" gradientUnits="userSpaceOnUse">
<stop stop-color="#5A51CE"/>
<stop offset="1" stop-color="#5A51CE" stop-opacity="0"/>
</linearGradient>
<linearGradient id="paint33_linear_7131_4452" x1="-41" y1="560.276" x2="250.98" y2="560.276" gradientUnits="userSpaceOnUse">
<stop stop-color="#5A51CE"/>
<stop offset="1" stop-color="#5A51CE" stop-opacity="0"/>
</linearGradient>
<linearGradient id="paint34_linear_7131_4452" x1="-41" y1="541.532" x2="271.579" y2="541.532" gradientUnits="userSpaceOnUse">
<stop stop-color="#5A51CE"/>
<stop offset="1" stop-color="#5A51CE" stop-opacity="0"/>
</linearGradient>
<linearGradient id="paint35_linear_7131_4452" x1="-41" y1="522.787" x2="292.121" y2="522.787" gradientUnits="userSpaceOnUse">
<stop stop-color="#5A51CE"/>
<stop offset="1" stop-color="#5A51CE" stop-opacity="0"/>
</linearGradient>
<linearGradient id="paint36_linear_7131_4452" x1="-41" y1="504.043" x2="312.663" y2="504.043" gradientUnits="userSpaceOnUse">
<stop stop-color="#5A51CE"/>
<stop offset="1" stop-color="#5A51CE" stop-opacity="0"/>
</linearGradient>
<linearGradient id="paint37_linear_7131_4452" x1="-41" y1="485.327" x2="333.262" y2="485.327" gradientUnits="userSpaceOnUse">
<stop stop-color="#5A51CE"/>
<stop offset="1" stop-color="#5A51CE" stop-opacity="0"/>
</linearGradient>
<linearGradient id="paint38_linear_7131_4452" x1="-41" y1="466.582" x2="353.804" y2="466.582" gradientUnits="userSpaceOnUse">
<stop stop-color="#5A51CE"/>
<stop offset="1" stop-color="#5A51CE" stop-opacity="0"/>
</linearGradient>
<linearGradient id="paint39_linear_7131_4452" x1="-41" y1="447.838" x2="374.346" y2="447.838" gradientUnits="userSpaceOnUse">
<stop stop-color="#5A51CE"/>
<stop offset="1" stop-color="#5A51CE" stop-opacity="0"/>
</linearGradient>
<linearGradient id="paint40_linear_7131_4452" x1="-41" y1="429.093" x2="394.945" y2="429.093" gradientUnits="userSpaceOnUse">
<stop stop-color="#5A51CE"/>
<stop offset="1" stop-color="#5A51CE" stop-opacity="0"/>
</linearGradient>
<linearGradient id="paint41_linear_7131_4452" x1="-41" y1="410.377" x2="415.487" y2="410.377" gradientUnits="userSpaceOnUse">
<stop stop-color="#5A51CE"/>
<stop offset="1" stop-color="#5A51CE" stop-opacity="0"/>
</linearGradient>
</defs>
</svg>
