<svg width="20" height="20" viewBox="0 0 20 20" fill="none" xmlns="http://www.w3.org/2000/svg">
<g id="Frame 173">
<g id="Group 5">
<path id="Rectangle 21" d="M17 7C17.5523 7 18 7.44772 18 8V12C18 12.5523 17.5523 13 17 13H14.4142C14.149 13 13.8946 12.8946 13.7071 12.7071L11.7071 10.7071C11.3166 10.3166 11.3166 9.68342 11.7071 9.29289L13.7071 7.29289C13.8946 7.10536 14.149 7 14.4142 7H17Z" fill="#2E1DEF"/>
<path id="Rectangle 22" d="M3 7C2.44772 7 2 7.44772 2 8L2 12C2 12.5523 2.44772 13 3 13H5.58579C5.851 13 6.10536 12.8946 6.29289 12.7071L8.29289 10.7071C8.68342 10.3166 8.68342 9.68342 8.29289 9.29289L6.29289 7.29289C6.10536 7.10536 5.851 7 5.58579 7H3Z" fill="#89A2EB"/>
<path id="Rectangle 21_2" d="M7 3C7 2.44772 7.44772 2 8 2H12C12.5523 2 13 2.44772 13 3V5.58579C13 5.851 12.8946 6.10536 12.7071 6.29289L10.7071 8.29289C10.3166 8.68342 9.68342 8.68342 9.29289 8.29289L7.29289 6.29289C7.10536 6.10536 7 5.851 7 5.58579V3Z" fill="#89A2EB"/>
<path id="Rectangle 22_2" d="M7 17C7 17.5523 7.44772 18 8 18H12C12.5523 18 13 17.5523 13 17V14.4142C13 14.149 12.8946 13.8946 12.7071 13.7071L10.7071 11.7071C10.3166 11.3166 9.68342 11.3166 9.29289 11.7071L7.29289 13.7071C7.10536 13.8946 7 14.149 7 14.4142V17Z" fill="#89A2EB"/>
</g>
</g>
</svg>
