<svg width="20" height="20" viewBox="0 0 20 20" fill="none" xmlns="http://www.w3.org/2000/svg">
<path d="M19.1667 7.84862V10.4931C19.1667 10.9103 18.926 11.2901 18.5487 11.4682L9.67945 15.6565C9.53546 15.7245 9.37819 15.7598 9.21895 15.7598H1.91176C1.31616 15.7598 0.83333 15.2769 0.83333 14.6813V8.40977C0.83333 8.11085 0.957399 7.82534 1.17593 7.62138L4.56669 4.45666C4.76639 4.27028 5.02937 4.16663 5.30253 4.16663H15.4847C15.7707 4.16663 16.045 4.28025 16.2472 4.48249L18.8508 7.08606C19.053 7.2883 19.1667 7.5626 19.1667 7.84862Z" fill="#89A2EB" fill-opacity="0.1" stroke="#89A2EB" stroke-width="0.539216"/>
<path d="M6.42045 11.8334V6.98489H8.05871C8.4375 6.98489 8.74842 7.0496 8.99148 7.17902C9.23453 7.30686 9.41446 7.48284 9.53125 7.70695C9.64804 7.93107 9.70644 8.18596 9.70644 8.47163C9.70644 8.7573 9.64804 9.01062 9.53125 9.23157C9.41446 9.45253 9.23532 9.62615 8.99384 9.75241C8.75237 9.87709 8.44381 9.93943 8.06818 9.93943H6.74242V9.40913H8.04924C8.30808 9.40913 8.51641 9.37125 8.67424 9.2955C8.83365 9.21974 8.94886 9.11241 9.01989 8.97353C9.09249 8.83306 9.12879 8.66576 9.12879 8.47163C9.12879 8.2775 9.09249 8.10784 9.01989 7.96264C8.94728 7.81743 8.83128 7.70538 8.67187 7.62646C8.51247 7.54597 8.30177 7.50572 8.03977 7.50572H7.00757V11.8334H6.42045ZM8.70265 9.65534L9.89583 11.8334H9.21401L8.03977 9.65534H8.70265ZM10.6848 11.8334V6.98489H12.3799C12.7176 6.98489 12.9962 7.04329 13.2156 7.16008C13.4349 7.27529 13.5983 7.43075 13.7056 7.62646C13.8129 7.82059 13.8666 8.03603 13.8666 8.27277C13.8666 8.4811 13.8295 8.65313 13.7553 8.78887C13.6827 8.9246 13.5864 9.03192 13.4665 9.11084C13.3481 9.18975 13.2195 9.24815 13.0806 9.28603V9.33337C13.229 9.34284 13.3781 9.39493 13.5281 9.48962C13.678 9.58432 13.8035 9.72005 13.9045 9.89682C14.0055 10.0736 14.056 10.2898 14.056 10.5455C14.056 10.7886 14.0007 11.0071 13.8903 11.2013C13.7798 11.3954 13.6054 11.5493 13.3671 11.6629C13.1287 11.7766 12.8186 11.8334 12.4367 11.8334H10.6848ZM11.2719 11.3125H12.4367C12.8202 11.3125 13.0924 11.2384 13.2534 11.09C13.416 10.9401 13.4973 10.7586 13.4973 10.5455C13.4973 10.3814 13.4555 10.2298 13.3718 10.0909C13.2882 9.95048 13.169 9.83842 13.0143 9.75478C12.8596 9.66955 12.6766 9.62693 12.4651 9.62693H11.2719V11.3125ZM11.2719 9.11557H12.3609C12.5377 9.11557 12.6971 9.08085 12.8391 9.0114C12.9828 8.94196 13.0964 8.84411 13.18 8.71784C13.2653 8.59158 13.3079 8.44322 13.3079 8.27277C13.3079 8.0597 13.2337 7.87899 13.0853 7.73063C12.937 7.58069 12.7018 7.50572 12.3799 7.50572H11.2719V9.11557Z" fill="white"/>
</svg>
