<svg width="20" height="20" viewBox="0 0 20 20" fill="none" xmlns="http://www.w3.org/2000/svg">
<g id="Frame 161">
<g id="Group 3">
<path id="Rectangle 19" d="M10.69 18.3334C11.7472 18.3334 12.6042 17.4764 12.6042 16.4192L12.6042 12.4556H6.87501L6.87501 16.4192C6.87501 17.4764 7.73201 18.3334 8.78917 18.3334H10.69Z" fill="#2E1DEF"/>
<g id="&#240;&#159;&#166;&#134; emoji &#34;plus&#34;">
<path id="Vector" d="M12.4705 6.54802V6.54923L12.4715 6.89179C12.4715 6.89189 12.4715 6.89199 12.4715 6.8921C12.4722 7.1314 12.6664 7.32506 12.9057 7.32506L16.8977 7.32506C17.4605 7.32506 17.9167 7.78126 17.9167 8.34402L17.9167 11.5111C17.9167 12.0738 17.4605 12.53 16.8977 12.53H12.9216C12.6736 12.53 12.473 12.7316 12.4742 12.9796L12.4742 12.9791L12.8908 12.9776L12.4742 12.9796L12.4705 6.54802ZM12.4705 6.54802L12.4705 3.10233C12.4705 2.53958 12.0143 2.08337 11.4516 2.08337L8.00752 2.08337C7.44477 2.08337 6.98857 2.53958 6.98857 3.10233L6.98857 6.54466L6.98857 6.54399L6.5719 6.54517M12.4705 6.54802H12.8872L12.8872 3.10233C12.8872 2.30946 12.2445 1.66671 11.4516 1.66671L8.00752 1.66671C7.21465 1.66671 6.5719 2.30946 6.5719 3.10233L6.5719 6.54517M6.5719 6.54517H6.98857L6.98957 6.89563C6.99024 7.12994 6.80248 7.32122 6.56828 7.32501L6.56828 7.32506H6.56154L3.10228 7.32506C2.53953 7.32506 2.08333 7.78126 2.08333 8.34402L2.08333 11.5111C2.08333 12.0738 2.53953 12.53 3.10228 12.53L6.53906 12.53C6.78883 12.53 6.99147 12.7321 6.99224 12.9818L6.99224 12.9815L6.57557 12.9831L6.99224 12.9827L6.56154 6.90839C6.56786 6.90829 6.57292 6.90314 6.5729 6.89682L6.5719 6.54517ZM12.4752 13.2414H12.8918L12.4752 13.243L12.4752 13.2423V13.2414Z" stroke="#89A2EB" stroke-width="0.833333" stroke-miterlimit="10" stroke-linecap="round" stroke-linejoin="round"/>
</g>
</g>
</g>
</svg>
