<svg width="20" height="20" viewBox="0 0 20 20" fill="none" xmlns="http://www.w3.org/2000/svg">
<path d="M2.5 17.1429V2.02385C2.5 1.36637 3.033 0.833374 3.69048 0.833374H11.4934C12.0425 0.833374 12.5204 1.20898 12.6502 1.74257L14.8346 10.7259C14.8848 10.9327 14.9896 11.1222 15.1379 11.2747L18.0757 14.2951C18.6243 14.8591 18.4846 15.7907 17.7947 16.169L14.1149 18.1867C13.9395 18.2829 13.7426 18.3334 13.5425 18.3334H3.69048C3.033 18.3334 2.5 17.8004 2.5 17.1429Z" fill="#89A2EB" fill-opacity="0.1" stroke="#89A2EB" stroke-width="0.833333"/>
<path d="M4.75379 12.6666V7.81814H6.39205C6.77083 7.81814 7.08176 7.88285 7.32481 8.01227C7.56787 8.14011 7.74779 8.31609 7.86458 8.54021C7.98138 8.76432 8.03977 9.01921 8.03977 9.30488C8.03977 9.59055 7.98138 9.84387 7.86458 10.0648C7.74779 10.2858 7.56866 10.4594 7.32718 10.5857C7.0857 10.7103 6.77715 10.7727 6.40152 10.7727H5.07576V10.2424H6.38258C6.64142 10.2424 6.84975 10.2045 7.00758 10.1287C7.16698 10.053 7.2822 9.94567 7.35322 9.80678C7.42582 9.66631 7.46212 9.49901 7.46212 9.30488C7.46212 9.11075 7.42582 8.94109 7.35322 8.79589C7.28062 8.65069 7.16462 8.53863 7.00521 8.45971C6.8458 8.37922 6.6351 8.33897 6.37311 8.33897H5.34091V12.6666H4.75379ZM7.03599 10.4886L8.22917 12.6666H7.54735L6.37311 10.4886H7.03599ZM8.75296 8.33897V7.81814H12.3893V8.33897H10.8647V12.6666H10.2776V8.33897H8.75296Z" fill="white"/>
</svg>
