<svg width="25" height="25" viewBox="0 0 25 25" fill="none" xmlns="http://www.w3.org/2000/svg">
<g id="&#240;&#159;&#166;&#134; icon &#34;arrow ios back&#34;">
<path id="Vector" d="M5.2083 14.4064C5.20777 14.2508 5.24212 14.097 5.30881 13.9564C5.37551 13.8158 5.47286 13.6919 5.59372 13.5939L11.8437 8.56265C12.0301 8.40944 12.2639 8.32568 12.5052 8.32568C12.7465 8.32568 12.9802 8.40944 13.1666 8.56265L19.4166 13.771C19.6294 13.9478 19.7631 14.2019 19.7885 14.4773C19.8139 14.7528 19.7289 15.027 19.5521 15.2397C19.3752 15.4525 19.1212 15.5862 18.8457 15.6116C18.5703 15.637 18.296 15.552 18.0833 15.3752L12.5 10.7189L6.91663 15.2189C6.76373 15.3463 6.57754 15.4272 6.3801 15.4521C6.18265 15.4769 5.98221 15.4447 5.80249 15.3593C5.62278 15.2738 5.47131 15.1386 5.366 14.9698C5.2607 14.8009 5.20597 14.6054 5.2083 14.4064Z" fill="white"/>
</g>
</svg>
