<svg width="32" height="32" viewBox="0 0 32 32" fill="none" xmlns="http://www.w3.org/2000/svg">
<g id="material-symbols:lock">
<path id="Vector" d="M8.00004 29.3335C7.26671 29.3335 6.63871 29.0722 6.11604 28.5495C5.59338 28.0268 5.33249 27.3993 5.33338 26.6668V13.3335C5.33338 12.6002 5.59471 11.9722 6.11738 11.4495C6.64004 10.9268 7.2676 10.6659 8.00004 10.6668H9.33338V8.00016C9.33338 6.15572 9.9836 4.58327 11.284 3.28283C12.5845 1.98239 14.1565 1.33261 16 1.3335C17.8445 1.3335 19.4169 1.98372 20.7174 3.28416C22.0178 4.58461 22.6676 6.15661 22.6667 8.00016V10.6668H24C24.7334 10.6668 25.3614 10.9282 25.884 11.4508C26.4067 11.9735 26.6676 12.6011 26.6667 13.3335V26.6668C26.6667 27.4002 26.4054 28.0282 25.8827 28.5508C25.36 29.0735 24.7325 29.3344 24 29.3335H8.00004ZM16 22.6668C16.7334 22.6668 17.3614 22.4055 17.884 21.8828C18.4067 21.3602 18.6676 20.7326 18.6667 20.0002C18.6667 19.2668 18.4054 18.6388 17.8827 18.1162C17.36 17.5935 16.7325 17.3326 16 17.3335C15.2667 17.3335 14.6387 17.5948 14.116 18.1175C13.5934 18.6402 13.3325 19.2677 13.3334 20.0002C13.3334 20.7335 13.5947 21.3615 14.1174 21.8842C14.64 22.4068 15.2676 22.6677 16 22.6668ZM12 10.6668H20V8.00016C20 6.88905 19.6112 5.94461 18.8334 5.16683C18.0556 4.38905 17.1112 4.00016 16 4.00016C14.8889 4.00016 13.9445 4.38905 13.1667 5.16683C12.3889 5.94461 12 6.88905 12 8.00016V10.6668Z" fill="white"/>
</g>
</svg>
