<svg width="20" height="20" viewBox="0 0 20 20" fill="none" xmlns="http://www.w3.org/2000/svg">
<g id="Frame 162">
<g id="Group 3">
<path id="Rectangle 19" d="M9.31 1.66663C8.25283 1.66663 7.39584 2.52363 7.39584 3.58079V7.54444H13.125V3.58079C13.125 2.52362 12.268 1.66663 11.2108 1.66663H9.31Z" fill="#2E1DEF"/>
<g id="&#240;&#159;&#166;&#134; emoji &#34;plus&#34;">
<path id="Vector" d="M7.52946 13.452V13.4508L7.52846 13.1082C7.52846 13.1081 7.52846 13.108 7.52846 13.1079C7.52778 12.8686 7.33358 12.6749 7.09425 12.6749H3.10229C2.53953 12.6749 2.08333 12.2187 2.08333 11.656V8.48895C2.08333 7.9262 2.53953 7.46999 3.10229 7.46999H7.07843C7.32637 7.46999 7.52703 7.26835 7.52582 7.02041L7.52582 7.02088L7.10916 7.02244L7.52582 7.02038L7.52946 13.452ZM7.52946 13.452V16.8977C7.52946 17.4604 7.98566 17.9166 8.54841 17.9166H11.9925C12.5552 17.9166 13.0114 17.4604 13.0114 16.8977L13.0114 13.4553L13.0114 13.456L13.4281 13.4548M7.52946 13.452H7.11279V16.8977C7.11279 17.6905 7.75554 18.3333 8.54841 18.3333H11.9925C12.7853 18.3333 13.4281 17.6905 13.4281 16.8977L13.4281 13.4548M13.4281 13.4548H13.0114L13.0104 13.1044C13.0098 12.8701 13.1975 12.6788 13.4317 12.675L13.4317 12.6749H13.4384L16.8977 12.6749C17.4605 12.6749 17.9167 12.2187 17.9167 11.656V8.48895C17.9167 7.92619 17.4605 7.46999 16.8977 7.46999H13.4609C13.2112 7.46999 13.0085 7.26791 13.0078 7.01824L13.0078 7.01847L13.4244 7.01685L13.0078 7.01727L13.4384 13.0916C13.4321 13.0917 13.4271 13.0969 13.4271 13.1032L13.4281 13.4548ZM7.52483 6.75855H7.10816L7.52483 6.75698L7.52483 6.75774V6.75855Z" stroke="#89A2EB" stroke-width="0.833333" stroke-miterlimit="10" stroke-linecap="round" stroke-linejoin="round"/>
</g>
</g>
</g>
</svg>
