<svg width="20" height="20" viewBox="0 0 20 20" fill="none" xmlns="http://www.w3.org/2000/svg">
<g id="Frame 144" clip-path="url(#clip0_140_241)">
<g id="&#240;&#159;&#166;&#134; icon &#34;ps play station button x&#34;">
<g id="Group">
<path id="Vector" d="M9.99998 20C15.5228 20 20 15.5228 20 9.99998C20 4.47714 15.5228 0 9.99998 0C4.47714 0 0 4.47714 0 9.99998C0 15.5228 4.47714 20 9.99998 20Z" fill="#5B68C0" fill-opacity="0.6"/>
<g id="Group_2">
<path id="Vector_2" d="M4.64425 5.42806L14.5718 15.3556C14.8604 15.6442 15.3282 15.6442 15.6168 15.3556C15.9054 15.067 15.9054 14.5992 15.6168 14.3106L5.68926 4.38305C5.40069 4.09448 4.93282 4.09448 4.64425 4.38305C4.35568 4.67162 4.35568 5.13949 4.64425 5.42806Z" fill="white"/>
<path id="Vector_3" d="M5.42809 15.6167L15.3556 5.68917C15.6442 5.4006 15.6442 4.93273 15.3556 4.64416C15.0671 4.35559 14.5992 4.35559 14.3106 4.64416L4.38308 14.5717C4.09451 14.8603 4.09451 15.3282 4.38308 15.6167C4.67165 15.9053 5.13952 15.9053 5.42809 15.6167Z" fill="white"/>
</g>
</g>
</g>
</g>
<defs>
<clipPath id="clip0_140_241">
<rect width="20" height="20" fill="white"/>
</clipPath>
</defs>
</svg>
