<svg width="20" height="20" viewBox="0 0 20 20" fill="none" xmlns="http://www.w3.org/2000/svg">
<path d="M1.66667 6.49521C1.66667 3.82845 3.8285 1.66663 6.49525 1.66663H13.5047C16.1715 1.66663 18.3333 3.82846 18.3333 6.49521V12.1436C18.3333 14.0044 17.264 15.6997 15.5846 16.5013L12.0798 18.174C10.7643 18.8018 9.23566 18.8018 7.92019 18.174L4.41544 16.5013C2.73602 15.6997 1.66667 14.0044 1.66667 12.1436V6.49521Z" fill="#D9D9D9"/>
<path d="M4.2547 13.3334V5.72469H6.8256C7.42003 5.72469 7.90795 5.82624 8.28938 6.02934C8.6708 6.22996 8.95315 6.50612 9.13644 6.85782C9.31972 7.20953 9.41136 7.60953 9.41136 8.05782C9.41136 8.50612 9.31972 8.90365 9.13644 9.2504C8.95315 9.59715 8.67204 9.86959 8.29309 10.0677C7.91414 10.2634 7.42993 10.3612 6.84046 10.3612H4.75996V9.52903H6.81074C7.21693 9.52903 7.54386 9.46959 7.79154 9.35071C8.0417 9.23182 8.2225 9.0634 8.33396 8.84544C8.44789 8.62501 8.50486 8.36247 8.50486 8.05782C8.50486 7.75318 8.44789 7.48693 8.33396 7.25906C8.22003 7.0312 8.03798 6.85535 7.78783 6.73151C7.53767 6.60519 7.20702 6.54203 6.79588 6.54203H5.17606V13.3334H4.2547ZM7.83612 9.91541L9.70857 13.3334H8.6386L6.79588 9.91541H7.83612ZM10.8129 13.3334V12.6646L13.3244 9.91541C13.6191 9.59343 13.8618 9.31355 14.0525 9.07578C14.2433 8.83553 14.3844 8.61015 14.4761 8.39962C14.5702 8.18662 14.6172 7.96371 14.6172 7.73089C14.6172 7.4634 14.5529 7.23182 14.4241 7.03615C14.2977 6.84049 14.1244 6.6894 13.9039 6.5829C13.6835 6.4764 13.4358 6.42315 13.1609 6.42315C12.8686 6.42315 12.6135 6.48383 12.3956 6.60519C12.1801 6.72408 12.0129 6.89126 11.894 7.10674C11.7776 7.32222 11.7194 7.57485 11.7194 7.86464H10.8426C10.8426 7.41881 10.9454 7.02748 11.151 6.69064C11.3566 6.3538 11.6364 6.09126 11.9906 5.90302C12.3473 5.71479 12.7473 5.62067 13.1906 5.62067C13.6364 5.62067 14.0315 5.71479 14.3758 5.90302C14.72 6.09126 14.99 6.34513 15.1857 6.66463C15.3813 6.98414 15.4792 7.33956 15.4792 7.73089C15.4792 8.01077 15.4284 8.28445 15.3268 8.55194C15.2278 8.81696 15.0544 9.11293 14.8067 9.43987C14.5615 9.76433 14.221 10.1606 13.785 10.6287L12.0761 12.4566V12.516H15.6129V13.3334H10.8129Z" fill="white"/>
</svg>
