<svg width="20" height="20" viewBox="0 0 20 20" fill="none" xmlns="http://www.w3.org/2000/svg">
<path d="M0 7.40117C0 5.15459 1.82121 3.33337 4.0678 3.33337H15.9322C18.1788 3.33337 20 5.15459 20 7.40117V12.3159C20 13.836 19.0314 15.1872 17.5917 15.6752C12.6682 17.3442 7.33185 17.3442 2.40833 15.6752C0.968648 15.1872 0 13.836 0 12.3159V7.40117Z" fill="#D9D9D9"/>
<path d="M5.77619 14V7.59014H7.94203C8.4428 7.59014 8.85385 7.67569 9.17517 7.84678C9.4965 8.01579 9.73437 8.24844 9.88877 8.54473C10.0432 8.84102 10.1204 9.178 10.1204 9.55566C10.1204 9.93333 10.0432 10.2682 9.88877 10.5603C9.73437 10.8524 9.49754 11.082 9.1783 11.2489C8.85906 11.4137 8.45114 11.4961 7.95455 11.4961H6.20185V10.7951H7.92951C8.2717 10.7951 8.54712 10.745 8.75578 10.6448C8.96652 10.5447 9.11884 10.4028 9.21273 10.2192C9.30871 10.0335 9.3567 9.81231 9.3567 9.55566C9.3567 9.29902 9.30871 9.07471 9.21273 8.88275C9.11675 8.69079 8.96339 8.54265 8.75265 8.43832C8.54191 8.33191 8.26335 8.2787 7.91699 8.2787H6.55239V14H5.77619ZM8.79334 11.1206L10.3708 14H9.46938L7.91699 11.1206H8.79334ZM13.5546 7.59014V14H12.7784V8.40389H12.7408L11.1759 9.44299V8.65428L12.7784 7.59014H13.5546Z" fill="white"/>
</svg>
