<svg width="36" height="36" viewBox="0 0 36 36" fill="none" xmlns="http://www.w3.org/2000/svg">
<g id="Frame 103">
<g id="&#240;&#159;&#166;&#134; icon &#34;star&#34;">
<path id="Vector" d="M34.9344 12.0844C35.3603 12.4651 35.6768 12.9613 35.8489 13.5179C36.0236 14.0737 36.0473 14.669 35.9175 15.238C35.7876 15.8069 35.5093 16.3273 35.1132 16.7416L28.9107 23.2591L30.2532 32.3321C30.3389 32.9099 30.2701 33.5011 30.0545 34.0407C29.8389 34.5804 29.4848 35.0477 29.0311 35.3914C28.5773 35.735 28.0415 35.9417 27.4825 35.9886C26.9235 36.0356 26.3628 35.9211 25.8621 35.6577L17.9989 31.5228L10.1359 35.6577C9.63528 35.9216 9.0745 36.0366 8.51525 35.9898C7.956 35.9431 7.41995 35.7365 6.96606 35.3927C6.51217 35.049 6.15801 34.5814 5.94256 34.0414C5.7271 33.5015 5.65868 32.91 5.74482 32.3321L7.08732 23.2591L0.884824 16.7416C0.49003 16.3265 0.212546 15.8061 0.082817 15.2375C-0.0469116 14.6688 -0.0238715 14.0739 0.149409 13.5181C0.32269 12.9622 0.639516 12.4668 1.06512 12.0862C1.49073 11.7057 2.00867 11.4547 2.56212 11.3608L11.2551 9.88817L15.285 1.72527C15.5417 1.20561 15.9308 0.769687 16.4095 0.465346C16.8883 0.161004 17.4382 0 17.9989 0C18.5597 0 19.1096 0.161004 19.5883 0.465346C20.067 0.769687 20.4561 1.20561 20.7128 1.72527L24.7427 9.88817L33.4359 11.3608C33.9899 11.4533 34.5085 11.7037 34.9344 12.0844Z" fill="#89A2EB"/>
</g>
</g>
</svg>
