<svg width="20" height="20" viewBox="0 0 20 20" fill="none" xmlns="http://www.w3.org/2000/svg">
<g id="Frame 172">
<g id="Group 5">
<path id="Rectangle 21" d="M3 13C2.44772 13 2 12.5523 2 12L2 8C2 7.44772 2.44772 7 3 7H5.58579C5.851 7 6.10536 7.10536 6.29289 7.29289L8.29289 9.29289C8.68342 9.68342 8.68342 10.3166 8.29289 10.7071L6.29289 12.7071C6.10536 12.8946 5.851 13 5.58579 13H3Z" fill="#2E1DEF"/>
<path id="Rectangle 22" d="M17 13C17.5523 13 18 12.5523 18 12V8C18 7.44772 17.5523 7 17 7H14.4142C14.149 7 13.8946 7.10536 13.7071 7.29289L11.7071 9.29289C11.3166 9.68342 11.3166 10.3166 11.7071 10.7071L13.7071 12.7071C13.8946 12.8946 14.149 13 14.4142 13H17Z" fill="#89A2EB"/>
<path id="Rectangle 21_2" d="M13 17C13 17.5523 12.5523 18 12 18H8C7.44772 18 7 17.5523 7 17V14.4142C7 14.149 7.10536 13.8946 7.29289 13.7071L9.29289 11.7071C9.68342 11.3166 10.3166 11.3166 10.7071 11.7071L12.7071 13.7071C12.8946 13.8946 13 14.149 13 14.4142V17Z" fill="#89A2EB"/>
<path id="Rectangle 22_2" d="M13 3C13 2.44772 12.5523 2 12 2L8 2C7.44772 2 7 2.44772 7 3V5.58579C7 5.851 7.10536 6.10536 7.29289 6.29289L9.29289 8.29289C9.68342 8.68342 10.3166 8.68342 10.7071 8.29289L12.7071 6.29289C12.8946 6.10536 13 5.851 13 5.58579V3Z" fill="#89A2EB"/>
</g>
</g>
</svg>
