<svg width="32" height="34" viewBox="0 0 32 34" fill="none" xmlns="http://www.w3.org/2000/svg">
<g id="Frame 3">
<g id="&#240;&#159;&#166;&#134; icon &#34;menu&#34;">
<path id="Vector" d="M4 8.20833C4 7.7221 4.15804 7.25579 4.43934 6.91197C4.72064 6.56815 5.10218 6.375 5.5 6.375H26.5C26.8978 6.375 27.2794 6.56815 27.5607 6.91197C27.842 7.25579 28 7.7221 28 8.20833C28 8.69456 27.842 9.16088 27.5607 9.5047C27.2794 9.84851 26.8978 10.0417 26.5 10.0417H5.5C5.10218 10.0417 4.72064 9.84851 4.43934 9.5047C4.15804 9.16088 4 8.69456 4 8.20833ZM4 17.375C4 16.8888 4.15804 16.4225 4.43934 16.0786C4.72064 15.7348 5.10218 15.5417 5.5 15.5417H26.5C26.8978 15.5417 27.2794 15.7348 27.5607 16.0786C27.842 16.4225 28 16.8888 28 17.375C28 17.8612 27.842 18.3275 27.5607 18.6714C27.2794 19.0152 26.8978 19.2083 26.5 19.2083H5.5C5.10218 19.2083 4.72064 19.0152 4.43934 18.6714C4.15804 18.3275 4 17.8612 4 17.375ZM4 26.5417C4 26.0554 4.15804 25.5891 4.43934 25.2453C4.72064 24.9015 5.10218 24.7083 5.5 24.7083H26.5C26.8978 24.7083 27.2794 24.9015 27.5607 25.2453C27.842 25.5891 28 26.0554 28 26.5417C28 27.0279 27.842 27.4942 27.5607 27.838C27.2794 28.1818 26.8978 28.375 26.5 28.375H5.5C5.10218 28.375 4.72064 28.1818 4.43934 27.838C4.15804 27.4942 4 27.0279 4 26.5417Z" fill="white"/>
</g>
</g>
</svg>
