<svg width="36" height="36" viewBox="0 0 36 36" fill="none" xmlns="http://www.w3.org/2000/svg">
<g id="Frame 5">
<g id="&#240;&#159;&#166;&#134; icon &#34;filter&#34;">
<path id="Vector" d="M9.2222 8H28.7776C29.4526 8 29.9998 8.55577 29.9998 9.24139L30 11.2103C30.0001 11.5396 29.8713 11.8555 29.642 12.0884L21.8022 20.0519C21.573 20.2847 21.4442 20.6005 21.4442 20.9298V28.7578C21.4442 29.5655 20.697 30.1582 19.9256 29.9623L17.4812 29.3415C16.9371 29.2034 16.5554 28.7067 16.5554 28.137V20.9298C16.5554 20.6005 16.4266 20.2847 16.1974 20.0519L8.35797 12.0883C8.12876 11.8555 8 11.5397 8 11.2104V9.24155C8 8.55587 8.54719 8 9.2222 8Z" stroke="white" stroke-width="3" stroke-linecap="round" stroke-linejoin="round"/>
</g>
</g>
</svg>
