<svg width="46" height="47" viewBox="0 0 46 47" fill="none" xmlns="http://www.w3.org/2000/svg">
<g id="Frame 99">
<g id="&#240;&#159;&#166;&#134; icon &#34;xbox&#34;">
<path id="Vector" d="M7.97763 40.4907C11.9446 43.9667 17.1473 46.0714 22.8334 46.0714C28.5252 46.0714 33.7222 43.9667 37.6967 40.4907C41.2272 36.8943 29.5785 24.1094 22.8334 19.0158C16.0958 24.1094 4.43956 36.8943 7.97763 40.4907ZM28.9691 13.3937C33.6714 18.9632 43.0461 32.7919 40.3977 37.6805C43.5276 33.8076 45.4048 28.8814 45.4048 23.5075C45.4048 17.2252 42.8373 11.5409 38.6898 7.45173C38.6898 7.45173 38.639 7.41035 38.5356 7.37273C38.4171 7.33135 38.2497 7.28809 38.007 7.28809C36.8935 7.28809 34.2733 8.10442 28.9691 13.3937ZM7.13496 7.37273C7.02775 7.41035 6.98072 7.44985 6.9732 7.45173C2.82946 11.5409 0.261963 17.2252 0.261963 23.5075C0.261963 28.8758 2.13915 33.802 5.26718 37.6768C2.63196 32.7769 11.9991 18.9594 16.7034 13.3937C11.3991 8.10254 8.77327 7.28997 7.66351 7.28997C7.41711 7.28997 7.24406 7.32947 7.13496 7.37649V7.37273ZM22.8334 7.60785C22.8334 7.60785 17.294 4.36697 12.9678 4.21273C11.2693 4.15066 10.2329 4.76761 10.1069 4.85037C14.1415 2.14368 18.4301 0.928589 22.8033 0.928589H22.8334C27.2235 0.928589 31.4952 2.14368 35.5599 4.85037C35.432 4.76385 34.4031 4.15066 32.7009 4.21273C28.3747 4.36697 22.8334 7.59657 22.8334 7.59657V7.60785Z" fill="white"/>
</g>
</g>
</svg>
