<svg width="36" height="36" viewBox="0 0 36 36" fill="none" xmlns="http://www.w3.org/2000/svg">
<g id="Frame 101">
<g id="&#240;&#159;&#166;&#134; icon &#34;star&#34;">
<path id="Vector" d="M35.8489 13.5179C35.6768 12.9613 35.3603 12.4651 34.9344 12.0844C34.5085 11.7037 33.9899 11.4533 33.4359 11.3608L24.7427 9.88817L20.7128 1.72527C20.4561 1.20561 20.067 0.769687 19.5883 0.465346C19.1096 0.161004 18.5597 0 17.9989 0C17.4382 0 16.8883 0.161004 16.4095 0.465346C15.9308 0.769687 15.5417 1.20561 15.285 1.72527L11.2551 9.88817L2.56212 11.3608C2.00867 11.4547 1.49073 11.7057 1.06512 12.0862C0.639516 12.4668 0.32269 12.9622 0.149409 13.5181C-0.0238715 14.0739 -0.0469116 14.6688 0.082817 15.2375C0.212546 15.8061 0.49003 16.3265 0.884824 16.7416L7.08732 23.2591L5.74482 32.3321C5.65868 32.91 5.7271 33.5015 5.94256 34.0414C6.15801 34.5814 6.51217 35.049 6.96606 35.3927C7.41995 35.7365 7.956 35.9431 8.51525 35.9898C9.0745 36.0366 9.63528 35.9216 10.1359 35.6577L17.9989 31.5228L25.8621 35.6577C26.3628 35.9211 26.9235 36.0356 27.4825 35.9886C28.0415 35.9417 28.5773 35.735 29.0311 35.3914C29.4848 35.0477 29.8389 34.5804 30.0545 34.0407C30.2701 33.5011 30.3389 32.9099 30.2532 32.3321L28.9107 23.2591L35.1132 16.7416C35.5093 16.3273 35.7876 15.8069 35.9175 15.238C36.0473 14.669 36.0236 14.0737 35.8489 13.5179ZM33.4092 14.9798L26.3539 22.3934L27.8812 32.7137C27.9001 32.8373 27.8859 32.9639 27.84 33.0796C27.7941 33.1953 27.7184 33.2954 27.6213 33.369C27.5241 33.4426 27.4093 33.4867 27.2896 33.4964C27.1699 33.5061 27.05 33.4812 26.943 33.4242L17.9989 28.7208L9.05472 33.4243C8.9478 33.4813 8.82784 33.5063 8.70813 33.4966C8.58842 33.4868 8.47364 33.4427 8.37649 33.3692C8.27935 33.2956 8.20364 33.1954 8.15776 33.0798C8.11188 32.9641 8.09761 32.8375 8.11655 32.7139L9.64392 22.3934L2.58875 14.9798C2.5045 14.891 2.4453 14.7798 2.41763 14.6584C2.38997 14.5369 2.39492 14.4099 2.43192 14.2911C2.46893 14.1724 2.53658 14.0666 2.62745 13.9852C2.71832 13.9039 2.8289 13.8502 2.9471 13.8301L12.8352 12.155L17.4191 2.87003C17.4739 2.75897 17.557 2.66579 17.6593 2.60074C17.7616 2.53569 17.8791 2.50127 17.9989 2.50127C18.1187 2.50127 18.2362 2.53569 18.3385 2.60074C18.4408 2.66579 18.5239 2.75897 18.5787 2.87003L23.1627 12.155L33.0507 13.8301C33.1689 13.8502 33.2795 13.9039 33.3704 13.9852C33.4613 14.0666 33.5289 14.1724 33.5659 14.2911C33.6029 14.4099 33.6079 14.5369 33.5802 14.6584C33.5525 14.7798 33.4933 14.891 33.4091 14.9798L33.4092 14.9798Z" fill="#89A2EB"/>
</g>
</g>
</svg>
