<svg width="20" height="20" viewBox="0 0 20 20" fill="none" xmlns="http://www.w3.org/2000/svg">
<path d="M17.5 17.1429V2.02385C17.5 1.36637 16.967 0.833374 16.3095 0.833374H8.50661C7.95748 0.833374 7.47959 1.20898 7.34984 1.74257L5.16544 10.7259C5.11517 10.9327 5.01041 11.1222 4.86206 11.2747L1.92426 14.2951C1.37568 14.8591 1.51537 15.7907 2.20527 16.169L5.88508 18.1867C6.06052 18.2829 6.25737 18.3334 6.45745 18.3334H16.3095C16.967 18.3334 17.5 17.8004 17.5 17.1429Z" fill="#89A2EB" fill-opacity="0.1" stroke="#89A2EB" stroke-width="0.833333"/>
<path d="M8.08712 12.6666V7.81814H8.67424V12.1458H10.928V12.6666H8.08712ZM10.9274 8.33897V7.81814H14.5638V8.33897H13.0392V12.6666H12.4521V8.33897H10.9274Z" fill="white"/>
</svg>
