<svg width="55" height="43" viewBox="0 0 55 43" fill="none" xmlns="http://www.w3.org/2000/svg">
<path d="M42.5524 15.6587C42.4686 13.7741 42.2069 11.8564 41.4216 10.1371C40.9909 9.18578 40.4063 8.32058 39.6939 7.58017C39.0261 6.88399 38.2766 6.28031 37.4637 5.78371C35.6732 4.65955 33.5373 3.9101 28.6266 2.36714C23.7159 0.824167 20.7977 0.339233 20.7977 0.339233V39.8282L29.1637 42.6607C29.1637 42.6607 29.1742 20.7505 29.1742 9.65215V9.23335C29.1742 8.20837 29.9595 7.38178 30.8599 7.38178H30.9123C31.8023 7.38178 32.5352 8.20837 32.5352 9.23335V23.9246C33.687 24.5087 35.5926 24.9496 36.9119 24.9275C37.7874 24.9532 38.6539 24.7366 39.4248 24.2993C40.2205 23.8362 40.8853 23.1593 41.3514 22.3376C41.8714 21.4111 42.2229 20.3907 42.388 19.3288C42.5838 18.1385 42.5943 16.8931 42.5524 15.6587Z" fill="white"/>
<path d="M9.76914 32.7196C12.6381 31.6395 19.1194 29.4684 19.1194 29.4684V24.2664C19.1194 24.2664 11.1094 26.9996 7.46562 28.3552C6.56515 28.6969 5.65422 29.0055 4.77469 29.4022C3.74857 29.8541 2.7434 30.3611 1.83246 31.0334C1.42378 31.3086 1.09146 31.6926 0.869171 32.1465C0.76498 32.3798 0.706635 32.6328 0.697638 32.8903C0.688642 33.1479 0.72918 33.4047 0.816819 33.6454C1.02623 34.2075 1.42411 34.6704 1.87434 35.0341C2.69105 35.6843 3.66481 36.0811 4.63857 36.3787C7.62154 37.4209 10.7523 37.9167 13.8945 37.8445C15.4128 37.8224 17.6639 37.6351 19.1298 37.3595V32.7306C19.1298 32.7306 17.9781 33.0062 14.8055 34.1083C14.3238 34.2736 13.8422 34.472 13.3396 34.5822C12.5957 34.7452 11.8378 34.8264 11.078 34.8247C10.3974 34.7916 9.69585 34.7475 9.05715 34.483C8.82679 34.3728 8.5755 34.2405 8.48127 33.976C8.3975 33.7556 8.51268 33.5352 8.65927 33.3809C8.95244 33.0613 9.37126 32.8849 9.76914 32.7196Z" fill="white"/>
<path d="M54.3035 31.4081C54.2931 30.7468 53.9161 30.1737 53.4764 29.7549C52.733 29.0606 51.8115 28.6197 50.8901 28.267C50.3143 28.0576 49.9164 27.9033 49.351 27.716C46.7124 26.8122 43.9167 26.4816 41.1525 26.4706C40.3149 26.5036 38.7338 26.5257 37.9066 26.6249C35.6136 26.9004 30.86 28.3221 30.86 28.3221V33.7005C30.86 33.7005 37.9276 31.3199 40.964 30.1957C41.9883 29.846 43.0599 29.6748 44.1366 29.6888C44.8172 29.7108 45.5187 29.7659 46.1679 30.0304C46.3983 30.1296 46.6391 30.2729 46.7438 30.5264C46.838 30.8129 46.6496 31.0774 46.4401 31.2428C45.948 31.6616 45.3198 31.8269 44.7439 32.0583C40.451 33.6564 30.8495 36.9848 30.8495 36.9848V42.1648C30.8495 42.1648 43.121 37.8004 48.7332 35.6843C49.6651 35.3206 50.6074 35.012 51.4974 34.5381C52.3246 34.0973 53.1518 33.5903 53.78 32.8519C54.1165 32.4543 54.3028 31.9406 54.3035 31.4081Z" fill="white"/>
</svg>
