<svg width="20" height="20" viewBox="0 0 20 20" fill="none" xmlns="http://www.w3.org/2000/svg">
<g id="Frame 142" clip-path="url(#clip0_140_214)">
<g id="&#240;&#159;&#166;&#134; icon &#34;ps play station button triangle&#34;">
<g id="Group">
<path id="Vector" d="M9.99998 20C15.5228 20 20 15.5228 20 9.99998C20 4.47714 15.5228 0 9.99998 0C4.47714 0 0 4.47714 0 9.99998C0 15.5228 4.47714 20 9.99998 20Z" fill="#22BA8E" fill-opacity="0.6"/>
<path id="Vector_2" d="M5.83506 13.7254H14.1649L9.99999 6.09645L5.83506 13.7254ZM10.5341 4.48971L15.7526 14.0485C15.9845 14.4733 15.6889 15 15.2185 15H4.7815C4.31108 15 4.01543 14.4733 4.24736 14.0485L9.46585 4.48971C9.70102 4.05893 10.299 4.05893 10.5341 4.48971Z" fill="white"/>
</g>
</g>
</g>
<defs>
<clipPath id="clip0_140_214">
<rect width="20" height="20" fill="white"/>
</clipPath>
</defs>
</svg>
