<svg width="20" height="20" viewBox="0 0 20 20" fill="none" xmlns="http://www.w3.org/2000/svg">
<g id="Frame 160">
<g id="Group 3">
<path id="Rectangle 19" d="M18.3333 9.31004C18.3333 8.25287 17.4763 7.39587 16.4192 7.39587H12.4555V13.125H16.4192C17.4763 13.125 18.3333 12.268 18.3333 11.2109V9.31004Z" fill="#2E1DEF"/>
<g id="&#240;&#159;&#166;&#134; emoji &#34;plus&#34;">
<path id="Vector" d="M6.54798 7.52942H6.54918L6.89175 7.52842C6.89185 7.52842 6.89195 7.52842 6.89205 7.52842C7.13136 7.52774 7.32502 7.33355 7.32502 7.09421V3.10225C7.32502 2.53949 7.78122 2.08329 8.34397 2.08329H11.511C12.0738 2.08329 12.53 2.5395 12.53 3.10225V7.07839C12.53 7.32634 12.7316 7.52699 12.9795 7.52578L12.9791 7.52578L12.9775 7.10912L12.9796 7.52578L6.54798 7.52942ZM6.54798 7.52942H3.10228C2.53953 7.52942 2.08333 7.98562 2.08333 8.54837V11.9924C2.08333 12.5552 2.53953 13.0114 3.10228 13.0114H6.54461L6.54394 13.0114L6.54513 13.4281M6.54798 7.52942V7.11275H3.10228C2.30941 7.11275 1.66666 7.7555 1.66666 8.54837V11.9924C1.66666 12.7853 2.30941 13.4281 3.10228 13.4281H6.54513M6.54513 13.4281V13.0114L6.89559 13.0104C7.12989 13.0097 7.32118 13.1975 7.32496 13.4317L7.32502 13.4317V13.4384V16.8977C7.32502 17.4604 7.78122 17.9166 8.34397 17.9166H11.511C12.0738 17.9166 12.53 17.4604 12.53 16.8977V13.4609C12.53 13.2111 12.732 13.0085 12.9817 13.0077L12.9815 13.0077L12.9831 13.4244L12.9827 13.0077L6.90835 13.4384C6.90825 13.4321 6.90309 13.427 6.89677 13.4271L6.54513 13.4281ZM13.2414 7.52479V7.10813L13.243 7.52479L13.2422 7.52479H13.2414Z" stroke="#89A2EB" stroke-width="0.833333" stroke-miterlimit="10" stroke-linecap="round" stroke-linejoin="round"/>
</g>
</g>
</g>
</svg>
