<svg width="20" height="20" viewBox="0 0 20 20" fill="none" xmlns="http://www.w3.org/2000/svg">
<path d="M12.5763 11.5472H12.0343L11.8422 11.3619C12.5146 10.5798 12.9194 9.56432 12.9194 8.45969C12.9194 5.99657 10.9228 4 8.45969 4C5.99657 4 4 5.99657 4 8.45969C4 10.9228 5.99657 12.9194 8.45969 12.9194C9.56432 12.9194 10.5798 12.5146 11.3619 11.8422L11.5472 12.0343V12.5763L14.9777 16L16 14.9777L12.5763 11.5472ZM8.45969 11.5472C6.75129 11.5472 5.37221 10.1681 5.37221 8.45969C5.37221 6.75129 6.75129 5.37221 8.45969 5.37221C10.1681 5.37221 11.5472 6.75129 11.5472 8.45969C11.5472 10.1681 10.1681 11.5472 8.45969 11.5472Z" fill="white"/>
</svg>
