<svg width="20" height="20" viewBox="0 0 20 20" fill="none" xmlns="http://www.w3.org/2000/svg">
<g clip-path="url(#clip0_156_572)">
<path d="M0.833333 7.84862V10.4931C0.833333 10.9103 1.074 11.2901 1.45127 11.4682L10.3205 15.6565C10.4645 15.7245 10.6218 15.7598 10.781 15.7598H18.0882C18.6838 15.7598 19.1667 15.2769 19.1667 14.6813V8.40977C19.1667 8.11085 19.0426 7.82534 18.8241 7.62138L15.4333 4.45666C15.2336 4.27028 14.9706 4.16663 14.6975 4.16663H4.51533C4.22931 4.16663 3.95501 4.28025 3.75276 4.48249L1.1492 7.08606C0.946953 7.2883 0.833333 7.5626 0.833333 7.84862Z" fill="#89A2EB" fill-opacity="0.1" stroke="#89A2EB" stroke-width="0.539216"/>
<path d="M6.42045 11.8334V6.98489H7.00758V11.3125H9.26136V11.8334H6.42045ZM10.1705 11.8334V6.98489H11.8655C12.2033 6.98489 12.4818 7.04329 12.7012 7.16008C12.9206 7.27529 13.084 7.43075 13.1913 7.62646C13.2986 7.82059 13.3523 8.03603 13.3523 8.27277C13.3523 8.4811 13.3152 8.65313 13.241 8.78887C13.1684 8.9246 13.0721 9.03192 12.9522 9.11084C12.8338 9.18975 12.7052 9.24815 12.5663 9.28603V9.33337C12.7146 9.34284 12.8638 9.39493 13.0137 9.48962C13.1637 9.58432 13.2891 9.72005 13.3902 9.89682C13.4912 10.0736 13.5417 10.2898 13.5417 10.5455C13.5417 10.7886 13.4864 11.0071 13.3759 11.2013C13.2655 11.3954 13.0911 11.5493 12.8527 11.6629C12.6144 11.7766 12.3043 11.8334 11.9223 11.8334H10.1705ZM10.7576 11.3125H11.9223C12.3059 11.3125 12.5781 11.2384 12.7391 11.09C12.9017 10.9401 12.983 10.7586 12.983 10.5455C12.983 10.3814 12.9411 10.2298 12.8575 10.0909C12.7738 9.95048 12.6547 9.83842 12.5 9.75478C12.3453 9.66955 12.1622 9.62693 11.9508 9.62693H10.7576V11.3125ZM10.7576 9.11557H11.8466C12.0234 9.11557 12.1828 9.08085 12.3248 9.0114C12.4684 8.94196 12.5821 8.84411 12.6657 8.71784C12.7509 8.59158 12.7936 8.44322 12.7936 8.27277C12.7936 8.0597 12.7194 7.87899 12.571 7.73063C12.4227 7.58069 12.1875 7.50572 11.8655 7.50572H10.7576V9.11557Z" fill="white"/>
</g>
<defs>
<clipPath id="clip0_156_572">
<rect width="20" height="20" fill="white" transform="matrix(0 1 1 0 0 0)"/>
</clipPath>
</defs>
</svg>
