<svg width="24" height="24" viewBox="0 0 24 24" fill="none" xmlns="http://www.w3.org/2000/svg">
<g id="Frame 140">
<g id="&#240;&#159;&#166;&#134; icon &#34;check&#34;">
<path id="Vector" d="M8.62905 20C8.42219 20.0002 8.21732 19.9596 8.02622 19.8804C7.83512 19.8012 7.66156 19.685 7.5155 19.5385L1.46766 13.4907C1.32005 13.3448 1.20274 13.1711 1.12248 12.9797C1.04223 12.7883 1.0006 12.5829 1.00001 12.3753C0.999409 12.1677 1.03985 11.9621 1.11901 11.7702C1.19816 11.5783 1.31447 11.404 1.46124 11.2572C1.608 11.1104 1.78234 10.9941 1.97422 10.915C2.1661 10.8358 2.37174 10.7953 2.5793 10.7959C2.78687 10.7965 2.99227 10.8381 3.1837 10.9184C3.37513 10.9986 3.54881 11.1159 3.69474 11.2635L8.62905 16.1978L20.368 4.45893C20.6635 4.1646 21.0638 3.99956 21.4809 4C21.898 4.00045 22.2979 4.16635 22.5928 4.46131C22.8878 4.75626 23.0536 5.15618 23.0541 5.57329C23.0545 5.99041 22.8894 6.39065 22.595 6.68619L9.7426 19.5386C9.59654 19.6851 9.42297 19.8013 9.23186 19.8804C9.04076 19.9596 8.8359 20.0002 8.62905 20Z" fill="#89A2EB"/>
</g>
</g>
</svg>
