<svg width="20" height="20" viewBox="0 0 20 20" fill="none" xmlns="http://www.w3.org/2000/svg">
<g id="Frame 143" clip-path="url(#clip0_140_217)">
<g id="&#240;&#159;&#166;&#134; icon &#34;ps play station button circle&#34;">
<g id="Group">
<path id="Vector" d="M9.99998 20C15.5228 20 20 15.5228 20 9.99998C20 4.47714 15.5228 0 9.99998 0C4.47714 0 0 4.47714 0 9.99998C0 15.5228 4.47714 20 9.99998 20Z" fill="#E43535" fill-opacity="0.6"/>
<path id="Vector_2" d="M9.99999 15.8333C6.77833 15.8333 4.16666 13.2216 4.16666 9.99996C4.16666 6.7783 6.77833 4.16663 9.99999 4.16663C13.2217 4.16663 15.8333 6.7783 15.8333 9.99996C15.8333 13.2216 13.2217 15.8333 9.99999 15.8333ZM9.99999 14.537C12.5057 14.537 14.537 12.5057 14.537 9.99996C14.537 7.49422 12.5057 5.46292 9.99999 5.46292C7.49425 5.46292 5.46295 7.49422 5.46295 9.99996C5.46295 12.5057 7.49425 14.537 9.99999 14.537Z" fill="white"/>
</g>
</g>
</g>
<defs>
<clipPath id="clip0_140_217">
<rect width="20" height="20" fill="white"/>
</clipPath>
</defs>
</svg>
