<svg width="22" height="22" viewBox="0 0 22 22" fill="none" xmlns="http://www.w3.org/2000/svg">
<g id="&#240;&#159;&#166;&#134; icon &#34;xbox b&#34;">
<path id="Vector" d="M11 21C16.5228 21 21 16.5228 21 11C21 5.47715 16.5228 1 11 1C5.47715 1 1 5.47715 1 11C1 16.5228 5.47715 21 11 21Z" fill="#FF0F00" fill-opacity="0.1" stroke="#FF0F00" stroke-width="1.53412" stroke-linecap="round" stroke-linejoin="round"/>
<g id="Vector_2">
<path d="M11.5986 10.8261C14.1338 10.8261 14.1338 15 11.5986 15C10.1685 15 8.5 15 8.5 15V10.8261M11.5986 10.8261C10.1685 10.8261 8.5 10.8261 8.5 10.8261H11.5986ZM11.5986 10.8261C14.1338 10.8261 14.1338 7 11.5986 7C10.4718 7 8.5 7 8.5 7V10.8261" fill="#FF0F00" fill-opacity="0.1"/>
<path d="M11.5986 10.8261C14.1338 10.8261 14.1338 15 11.5986 15C10.1685 15 8.5 15 8.5 15V10.8261M11.5986 10.8261C10.1685 10.8261 8.5 10.8261 8.5 10.8261M11.5986 10.8261C14.1338 10.8261 14.1338 7 11.5986 7C10.4718 7 8.5 7 8.5 7V10.8261" stroke="#FF0F00" stroke-width="1.53412" stroke-linecap="round" stroke-linejoin="round"/>
</g>
</g>
</svg>
