<svg width="20" height="20" viewBox="0 0 20 20" fill="none" xmlns="http://www.w3.org/2000/svg">
<path d="M1.66667 6.49521C1.66667 3.82845 3.8285 1.66663 6.49525 1.66663H13.5047C16.1715 1.66663 18.3333 3.82846 18.3333 6.49521V12.1436C18.3333 14.0044 17.264 15.6997 15.5846 16.5013L12.0798 18.174C10.7643 18.8018 9.23566 18.8018 7.92019 18.174L4.41544 16.5013C2.73602 15.6997 1.66667 14.0044 1.66667 12.1436V6.49521Z" fill="#D9D9D9"/>
<path d="M5.00235 13.2762V5.66757H5.92371V12.4589H9.46056V13.2762H5.00235ZM10.7534 13.2762V12.6075L13.2649 9.85828C13.5596 9.5363 13.8024 9.25643 13.9931 9.01865C14.1838 8.77841 14.325 8.55302 14.4166 8.34249C14.5107 8.12949 14.5578 7.90658 14.5578 7.67376C14.5578 7.40627 14.4934 7.17469 14.3646 6.97902C14.2383 6.78336 14.0649 6.63227 13.8445 6.52577C13.624 6.41927 13.3764 6.36602 13.1014 6.36602C12.8092 6.36602 12.5541 6.4267 12.3361 6.54806C12.1206 6.66695 11.9534 6.83413 11.8346 7.04961C11.7181 7.26509 11.6599 7.51772 11.6599 7.80751H10.7832C10.7832 7.36169 10.8859 6.97035 11.0915 6.63351C11.2971 6.29667 11.577 6.03413 11.9311 5.84589C12.2878 5.65766 12.6878 5.56354 13.1311 5.56354C13.577 5.56354 13.972 5.65766 14.3163 5.84589C14.6606 6.03413 14.9305 6.288 15.1262 6.6075C15.3219 6.92701 15.4197 7.28243 15.4197 7.67376C15.4197 7.95364 15.3689 8.22732 15.2674 8.49481C15.1683 8.75983 14.9949 9.05581 14.7473 9.38274C14.502 9.7072 14.1615 10.1035 13.7256 10.5716L12.0166 12.3995V12.4589H15.5534V13.2762H10.7534Z" fill="white"/>
</svg>
