<svg width="25" height="25" viewBox="0 0 25 25" fill="none" xmlns="http://www.w3.org/2000/svg">
<g id="&#240;&#159;&#166;&#134; icon &#34;arrow ios back&#34;">
<path id="Vector" d="M19.7917 10.5936C19.7922 10.7492 19.7579 10.903 19.6912 11.0436C19.6245 11.1842 19.5271 11.3081 19.4063 11.4061L13.1563 16.4373C12.9699 16.5906 12.7361 16.6743 12.4948 16.6743C12.2535 16.6743 12.0198 16.5906 11.8334 16.4373L5.58337 11.229C5.37064 11.0522 5.23687 10.7981 5.21147 10.5227C5.18607 10.2472 5.27114 9.97299 5.44795 9.76027C5.62476 9.54754 5.87883 9.41377 6.15428 9.38837C6.42972 9.36298 6.70397 9.44804 6.9167 9.62485L12.5 14.2811L18.0834 9.7811C18.2363 9.65372 18.4225 9.57281 18.6199 9.54793C18.8173 9.52306 19.0178 9.55526 19.1975 9.64074C19.3772 9.72621 19.5287 9.86138 19.634 10.0302C19.7393 10.1991 19.794 10.3946 19.7917 10.5936Z" fill="white"/>
</g>
</svg>
