<svg width="26" height="26" viewBox="0 0 26 26" fill="none" xmlns="http://www.w3.org/2000/svg">
<g id="Frame 235">
<g id="&#240;&#159;&#166;&#134; icon &#34;sharethis&#34;">
<path id="Vector" d="M19.3284 15.853C20.3054 15.853 21.1289 16.1949 21.7988 16.8788C22.4688 17.5628 22.8038 18.3932 22.8038 19.3703C22.8038 20.3194 22.4688 21.1359 21.7988 21.8198C21.1289 22.5037 20.3054 22.8457 19.3284 22.8457C18.3514 22.8457 17.5279 22.5037 16.8579 21.8198C16.188 21.1359 15.853 20.3194 15.853 19.3703C15.853 19.2586 15.8669 19.1888 15.8948 19.1609L8.81842 15.6017C8.17638 16.16 7.43663 16.4392 6.59918 16.4392C5.62216 16.4392 4.79867 16.1042 4.12872 15.4342C3.45876 14.7643 3.12378 13.9408 3.12378 12.9638C3.12378 11.9868 3.45876 11.1633 4.12872 10.4933C4.79867 9.82336 5.62216 9.48838 6.59918 9.48838C7.01791 9.48838 7.41569 9.56514 7.79255 9.71867C8.1694 9.87221 8.51135 10.0746 8.81842 10.3258L15.8948 6.80855C15.8669 6.75272 15.853 6.68293 15.853 6.59918C15.853 5.62216 16.188 4.79867 16.8579 4.12872C17.5279 3.45876 18.3514 3.12378 19.3284 3.12378C20.3054 3.12378 21.1289 3.45876 21.7988 4.12872C22.4688 4.79867 22.8038 5.62216 22.8038 6.59918C22.8038 7.57621 22.4688 8.3997 21.7988 9.06965C21.1289 9.73961 20.3054 10.0746 19.3284 10.0746C18.4909 10.0746 17.7512 9.79544 17.1091 9.23714L10.0327 12.7963C10.0327 12.8242 10.0397 12.8521 10.0537 12.88C10.0676 12.908 10.0746 12.9359 10.0746 12.9638C10.0746 13.0196 10.0676 13.0545 10.0537 13.0685C10.0397 13.0824 10.0327 13.1173 10.0327 13.1731L17.1091 16.6904C17.7512 16.1321 18.4909 15.853 19.3284 15.853Z" fill="white"/>
</g>
</g>
</svg>
